<?xml version="1.0" encoding="UTF-8" standalone="no"?>
<svg
   xmlns:dc="http://purl.org/dc/elements/1.1/"
   xmlns:cc="http://creativecommons.org/ns#"
   xmlns:rdf="http://www.w3.org/1999/02/22-rdf-syntax-ns#"
   xmlns:svg="http://www.w3.org/2000/svg"
   xmlns="http://www.w3.org/2000/svg"
   xmlns:sodipodi="http://sodipodi.sourceforge.net/DTD/sodipodi-0.dtd"
   xmlns:inkscape="http://www.inkscape.org/namespaces/inkscape"
   version="1.1"
   x="0px"
   y="0px"
   viewBox="0 0 64 64"
   style="enable-background:new 0 0 64 64;"
   xml:space="preserve"
   id="svg2"
   inkscape:version="0.91 r13725"
   sodipodi:docname="analysis.svg"><metadata
     id="metadata16"><rdf:RDF><cc:Work
         rdf:about=""><dc:format>image/svg+xml</dc:format><dc:type
           rdf:resource="http://purl.org/dc/dcmitype/StillImage" /><dc:title></dc:title></cc:Work></rdf:RDF></metadata><defs
     id="defs14" /><sodipodi:namedview
     pagecolor="#ffffff"
     bordercolor="#666666"
     borderopacity="1"
     objecttolerance="10"
     gridtolerance="10"
     guidetolerance="10"
     inkscape:pageopacity="0"
     inkscape:pageshadow="2"
     inkscape:window-width="640"
     inkscape:window-height="480"
     id="namedview12"
     showgrid="false"
     inkscape:zoom="10.640625"
     inkscape:cx="32"
     inkscape:cy="31.624082"
     inkscape:current-layer="svg2" /><path
     d="M11,29h4h4h4h4h5v-2h-4V12c0-0.553-0.447-1-1-1h-4c-0.553,0-1,0.447-1,1v15h-2V3c0-0.553-0.447-1-1-1h-4  c-0.553,0-1,0.447-1,1v24h-2V16c0-0.553-0.447-1-1-1H7c-0.553,0-1,0.447-1,1v11H2v2h5H11z M24,13h2v14h-2V13z M16,4h2v23h-2V4z   M8,17h2v10H8V17z"
     id="path4" /><path
     d="M61.905,13.491c-0.043-0.372-0.095-0.742-0.169-1.106c-0.002-0.011-0.006-0.021-0.008-0.031  c-0.507-2.463-1.717-4.728-3.536-6.547s-4.084-3.029-6.547-3.536c-0.011-0.002-0.021-0.006-0.031-0.008  c-0.364-0.074-0.734-0.126-1.106-0.169c-0.064-0.007-0.127-0.022-0.191-0.028C49.882,2.023,49.443,2,49,2s-0.882,0.023-1.317,0.067  c-0.065,0.007-0.127,0.021-0.191,0.028c-0.372,0.043-0.742,0.095-1.106,0.169c-0.011,0.002-0.021,0.006-0.031,0.008  c-2.463,0.507-4.728,1.717-6.547,3.536c-0.01,0.01-0.013,0.024-0.023,0.034C37.448,8.194,36,11.43,36,15s1.448,6.806,3.785,9.158  c0.01,0.01,0.013,0.024,0.023,0.034c1.819,1.819,4.084,3.029,6.547,3.536c0.011,0.002,0.021,0.006,0.031,0.008  c0.364,0.074,0.734,0.126,1.106,0.169c0.064,0.007,0.127,0.022,0.191,0.028C48.118,27.977,48.557,28,49,28c7.168,0,13-5.832,13-13  c0-0.443-0.023-0.882-0.067-1.317C61.927,13.618,61.912,13.556,61.905,13.491z M43.745,5.339c0.019-0.01,0.038-0.019,0.056-0.029  c0.28-0.151,0.568-0.289,0.861-0.415c0.05-0.022,0.101-0.042,0.152-0.063c0.262-0.108,0.529-0.206,0.801-0.294  c0.076-0.025,0.152-0.049,0.229-0.072c0.25-0.075,0.504-0.139,0.761-0.196c0.094-0.021,0.187-0.044,0.282-0.062  c0.252-0.049,0.509-0.086,0.766-0.117c0.096-0.012,0.191-0.028,0.287-0.037C48.289,4.02,48.642,4,49,4s0.711,0.02,1.06,0.054  c0.096,0.009,0.191,0.026,0.287,0.037c0.258,0.032,0.514,0.068,0.766,0.117c0.095,0.018,0.188,0.041,0.282,0.062  c0.257,0.057,0.511,0.121,0.761,0.196c0.077,0.023,0.153,0.047,0.229,0.072c0.272,0.088,0.539,0.185,0.801,0.294  c0.051,0.021,0.102,0.041,0.152,0.063c0.294,0.127,0.581,0.265,0.861,0.415c0.019,0.01,0.038,0.019,0.056,0.029  c0.633,0.346,1.228,0.753,1.779,1.213L49,13.586l-7.034-7.034C42.517,6.093,43.111,5.685,43.745,5.339z M57.448,7.966  c0.237,0.285,0.462,0.58,0.671,0.887c0,0,0.001,0.001,0.001,0.001c0.196,0.289,0.377,0.589,0.545,0.897  c0.003,0.005,0.006,0.011,0.009,0.016c0.335,0.617,0.613,1.27,0.826,1.951c0.005,0.018,0.01,0.036,0.015,0.053  c0.091,0.295,0.166,0.597,0.232,0.902c0.016,0.075,0.031,0.149,0.046,0.224c0.053,0.274,0.095,0.552,0.128,0.833  c0.007,0.065,0.018,0.13,0.025,0.195c0.002,0.025,0.002,0.05,0.004,0.075h-8.535L57.448,7.966z M40.552,7.966L47.586,15  l-7.034,7.034C38.961,20.125,38,17.673,38,15S38.961,9.875,40.552,7.966z M47.94,25.946c-0.097-0.009-0.192-0.026-0.288-0.038  c-0.257-0.032-0.513-0.068-0.765-0.117c-0.095-0.018-0.189-0.041-0.283-0.062c-0.257-0.057-0.511-0.121-0.76-0.196  c-0.077-0.023-0.153-0.047-0.229-0.072c-0.272-0.088-0.539-0.185-0.801-0.294c-0.051-0.021-0.102-0.041-0.152-0.063  c-0.293-0.126-0.581-0.264-0.86-0.415c-0.019-0.01-0.039-0.02-0.058-0.03c-0.633-0.346-1.228-0.753-1.778-1.212L49.414,16h10.535  c-0.002,0.021-0.001,0.044-0.003,0.065c-0.014,0.141-0.039,0.277-0.058,0.416c-0.029,0.217-0.057,0.435-0.099,0.648  c-0.029,0.146-0.068,0.289-0.103,0.433c-0.048,0.2-0.095,0.4-0.154,0.596c-0.044,0.146-0.097,0.289-0.146,0.432  c-0.065,0.187-0.129,0.374-0.204,0.556c-0.058,0.143-0.124,0.282-0.188,0.422c-0.081,0.176-0.162,0.35-0.251,0.521  c-0.072,0.137-0.15,0.271-0.227,0.405c-0.095,0.164-0.193,0.328-0.296,0.487c-0.085,0.13-0.174,0.258-0.264,0.384  c-0.109,0.154-0.222,0.305-0.339,0.453c-0.097,0.122-0.196,0.241-0.298,0.359c-0.123,0.142-0.249,0.281-0.379,0.417  c-0.107,0.112-0.217,0.223-0.329,0.331c-0.136,0.13-0.275,0.256-0.417,0.379c-0.117,0.102-0.235,0.202-0.357,0.299  c-0.148,0.118-0.3,0.229-0.453,0.339c-0.126,0.09-0.252,0.181-0.382,0.266c-0.159,0.104-0.324,0.201-0.489,0.297  c-0.133,0.078-0.265,0.156-0.402,0.229c-0.171,0.09-0.348,0.172-0.525,0.253c-0.138,0.064-0.275,0.13-0.417,0.189  c-0.185,0.076-0.375,0.141-0.564,0.207c-0.141,0.049-0.28,0.103-0.423,0.146c-0.201,0.061-0.408,0.109-0.615,0.158  c-0.138,0.033-0.273,0.072-0.413,0.1c-0.232,0.046-0.469,0.077-0.706,0.108c-0.12,0.016-0.236,0.04-0.357,0.052  C49.733,25.98,49.369,26,49,26C48.642,26,48.289,25.98,47.94,25.946z"
     id="path6" /><path
     d="M18.174,48.24l8.341,4.634c0.343,0.19,0.769,0.162,1.085-0.074L43,41.25l11.4,8.55l1.199-1.6l-12-9  c-0.355-0.268-0.844-0.268-1.199,0l-15.481,11.61l-8.434-4.685c-0.39-0.217-0.877-0.148-1.192,0.167l-9,9l1.414,1.414L18.174,48.24z  "
     id="path8" /><path
     d="M61,32H3c-0.553,0-1,0.447-1,1v28c0,0.553,0.447,1,1,1h58c0.553,0,1-0.447,1-1V33C62,32.447,61.553,32,61,32z M60,60H4V34  h56V60z"
     id="path10" /></svg>